<svg id="Layer_1" data-name="Layer 1" xmlns="http://www.w3.org/2000/svg" viewBox="0 0 367.29 82"><defs><style>.cls-1{fill:#e31937;}.cls-2{fill:#162732;}</style></defs><title>Hivelocity_logo_redblk</title><rect class="cls-1" width="10" height="82"/><rect class="cls-1" x="73" width="10" height="82"/><rect class="cls-1" x="20" y="27" width="43" height="10"/><rect class="cls-1" x="20" y="46" width="43" height="10"/><polygon class="cls-2" points="134.12 56.08 134.12 43.2 121.87 43.2 121.87 56.08 117.3 56.08 117.3 26.58 121.87 26.58 121.87 39.18 134.12 39.18 134.12 26.58 138.7 26.58 138.7 56.08 134.12 56.08"/><rect class="cls-2" x="148.78" y="26.58" width="4.58" height="29.5"/><polygon class="cls-2" points="174.21 56.08 170.65 56.08 160.73 26.58 165.48 26.58 172.43 48.04 179.38 26.58 184.21 26.58 174.21 56.08"/><polygon class="cls-2" points="191.63 56.08 191.63 26.58 210.91 26.58 210.91 30.6 196.21 30.6 196.21 39.22 208.75 39.22 208.75 43.2 196.21 43.2 196.21 52.06 210.91 52.06 210.91 56.08 191.63 56.08"/><polygon class="cls-2" points="219.32 56.08 219.32 26.58 223.9 26.58 223.9 52.06 238.43 52.06 238.43 56.08 219.32 56.08"/><path class="cls-2" d="M261.44,32.8a6.45,6.45,0,0,0-9,0C251,34.37,250.68,36,250.68,42s0.29,7.58,1.78,9.16a6.45,6.45,0,0,0,9,0c1.48-1.57,1.78-3.23,1.78-9.16s-0.3-7.58-1.78-9.16m3.47,21a11.6,11.6,0,0,1-15.89,0c-3-2.9-2.92-6.17-2.92-11.85s0-9,2.92-11.85a11.6,11.6,0,0,1,15.89,0c3,2.9,2.88,6.17,2.88,11.85s0.09,9-2.88,11.85" transform="translate(-1.13 -0.63)"/><path class="cls-2" d="M286.87,57a11.05,11.05,0,0,1-7.92-3.15C276,50.91,276,47.63,276,42s0-9,2.93-11.85A11.06,11.06,0,0,1,286.87,27c5.55,0,9.71,3.19,10.77,9.07H293c-0.72-3-2.76-5.06-6.1-5.06a6.1,6.1,0,0,0-4.45,1.78c-1.48,1.57-1.82,3.27-1.82,9.2s0.34,7.62,1.82,9.2a6.11,6.11,0,0,0,4.45,1.78c3.35,0,5.43-2.07,6.15-5.05h4.62A10.35,10.35,0,0,1,286.87,57" transform="translate(-1.13 -0.63)"/><rect class="cls-2" x="304.86" y="26.58" width="4.58" height="29.5"/><polygon class="cls-2" points="330.18 30.6 330.18 56.08 325.61 56.08 325.61 30.6 317.3 30.6 317.3 26.58 338.49 26.58 338.49 30.6 330.18 30.6"/><polygon class="cls-2" points="358.27 43.94 358.27 56.08 353.69 56.08 353.69 43.94 344.66 26.58 349.66 26.58 355.98 39.55 362.29 26.58 367.3 26.58 358.27 43.94"/></svg>