<svg id="Layer_1" data-name="Layer 1" xmlns="http://www.w3.org/2000/svg" xmlns:xlink="http://www.w3.org/1999/xlink" viewBox="0 0 3672 1296"><defs><style>.cls-1{fill:#0e4250;}.cls-2{fill:#cdcccb;}.cls-3{fill:#fff;}.cls-4{fill:url(#radial-gradient);}.cls-5{fill:url(#linear-gradient);}</style><radialGradient id="radial-gradient" cx="953.07" cy="220.99" r="898.69" gradientUnits="userSpaceOnUse"><stop offset="0.34" stop-color="#ec2426"/><stop offset="0.53" stop-color="#e92325"/><stop offset="0.65" stop-color="#e02022"/><stop offset="0.77" stop-color="#d01b1d"/><stop offset="0.87" stop-color="#ba1316"/><stop offset="0.97" stop-color="#9e0a0d"/><stop offset="1" stop-color="#920609"/></radialGradient><linearGradient id="linear-gradient" x1="688.9" y1="488.65" x2="760.24" y2="168.94" gradientUnits="userSpaceOnUse"><stop offset="0" stop-color="#ec2426"/><stop offset="0.1" stop-color="#ed3234"/><stop offset="0.3" stop-color="#f05759"/><stop offset="0.57" stop-color="#f69394"/><stop offset="0.9" stop-color="#fde5e5"/><stop offset="1" stop-color="#fff"/></linearGradient></defs><path class="cls-1" d="M1368.42,528.54c0-13.65,10.85-24.5,24.91-24.5a24.35,24.35,0,0,1,24.5,24.5v118.9l133.36-134.16c5.62-6,11.64-9.24,20.48-9.24a22.63,22.63,0,0,1,22.9,22.9c0,7.63-3.22,13.25-8.84,18.47l-87.56,84.36L1593,747.46c4,5.22,6.83,10,6.83,17.67,0,13.66-10.85,24.1-24.91,24.1-9.63,0-15.66-4.82-20.88-11.65L1463.62,662.3l-45.79,44.19v58.24a24.35,24.35,0,0,1-24.5,24.5c-14.06,0-24.91-10.85-24.91-24.5Z"/><path class="cls-1" d="M1633.13,597.23c0-13.66,10.44-24.5,24.1-24.5a24.34,24.34,0,0,1,24.5,24.5v10.44c13.66-19.68,33.34-36.95,66.28-36.95,47.8,0,75.51,32.13,75.51,81.14V765.13a23.67,23.67,0,0,1-24.1,24.1c-13.65,0-24.5-10.44-24.5-24.1V666.72c0-32.94-16.47-51.82-45.39-51.82-28.12,0-47.8,19.69-47.8,52.62v97.61c0,13.66-10.84,24.1-24.5,24.1a23.91,23.91,0,0,1-24.1-24.1Z"/><path class="cls-1" d="M1854.45,682.39v-.81c0-60.65,48.2-110.86,113.27-110.86s112.88,49.41,112.88,110.06v.8c0,60.25-48.21,110.46-113.68,110.46C1902.25,792,1854.45,742.64,1854.45,682.39Zm177.54,0v-.81c0-37.35-26.91-68.28-65.07-68.28-39,0-63.86,30.52-63.86,67.48v.8c0,37,26.91,67.88,64.66,67.88C2007.09,749.46,2032,718.94,2032,682.39Z"/><path class="cls-1" d="M2152.9,769.15l-57-161.48a40.15,40.15,0,0,1-2.41-12.45c0-11.65,9.24-22.49,23.7-22.49,12,0,20.08,8,23.7,19.28l41,128.53L2223.19,592c3.62-11.25,12.45-19.28,24.9-19.28h2.82c12.45,0,21.28,8,24.9,19.28l41.77,128.53L2359,591.61c3.21-10.45,10.84-18.88,23.7-18.88a22.54,22.54,0,0,1,22.89,22.49,39.91,39.91,0,0,1-2,10.85L2345.7,769.15c-5.22,14.86-15.26,21.69-26.91,21.69h-1.61c-12,0-22.09-6.83-26.51-20.89L2249.3,643.82,2207.53,770c-4.42,14.06-14.47,20.89-26.11,20.89h-1.61C2167.76,790.84,2157.72,784,2152.9,769.15Z"/><path class="cls-1" d="M2435.28,597.23c0-13.66,10.44-24.5,24.1-24.5a24.34,24.34,0,0,1,24.5,24.5v10.44c13.66-19.68,33.34-36.95,66.27-36.95,47.8,0,75.52,32.13,75.52,81.14V765.13a23.67,23.67,0,0,1-24.1,24.1c-13.66,0-24.5-10.44-24.5-24.1V666.72c0-32.94-16.47-51.82-45.39-51.82-28.12,0-47.8,19.69-47.8,52.62v97.61c0,13.66-10.85,24.1-24.5,24.1a23.91,23.91,0,0,1-24.1-24.1Z"/><path class="cls-1" d="M2665.84,528.54c0-13.65,10.84-24.5,24.9-24.5a24.34,24.34,0,0,1,24.5,24.5v94.4H2849.4v-94.4a24.35,24.35,0,0,1,24.51-24.5c14.05,0,24.9,10.85,24.9,24.5V764.73c0,13.65-10.85,24.5-24.9,24.5a24.35,24.35,0,0,1-24.51-24.5v-96H2715.24v96a24.34,24.34,0,0,1-24.5,24.5c-14.06,0-24.9-10.85-24.9-24.5Z"/><path class="cls-1" d="M2929.74,682.39v-.81c0-60.65,48.2-110.86,113.27-110.86s112.87,49.41,112.87,110.06v.8c0,60.25-48.2,110.46-113.67,110.46C2977.54,792,2929.74,742.64,2929.74,682.39Zm177.54,0v-.81c0-37.35-26.91-68.28-65.07-68.28-39,0-63.87,30.52-63.87,67.48v.8c0,37,26.91,67.88,64.67,67.88C3082.37,749.46,3107.28,718.94,3107.28,682.39Z"/><path class="cls-1" d="M3181.19,765.93c-5.22-2.81-9.24-8.83-9.24-16.87a19.46,19.46,0,0,1,19.68-19.68,21.25,21.25,0,0,1,10.44,2.81c20.49,13.66,41.78,20.49,61.06,20.49,20.89,0,32.94-8.84,32.94-22.9V729c0-16.47-22.5-22.09-47.4-29.72-31.33-8.84-66.28-21.69-66.28-62.26v-.81c0-40.16,33.34-64.67,75.52-64.67,22.49,0,46.19,6.43,66.68,17.27,6.82,3.62,11.64,10.05,11.64,18.48,0,11.25-8.83,19.68-20.08,19.68a19,19,0,0,1-9.64-2.41c-17.27-8.83-35-14.46-49.81-14.46-18.88,0-29.72,8.84-29.72,20.89v.8c0,15.67,22.89,22.1,47.8,30.13,30.93,9.64,65.87,23.7,65.87,61.86v.8c0,44.59-34.54,66.68-78.73,66.68A144.94,144.94,0,0,1,3181.19,765.93Z"/><path class="cls-1" d="M3388.45,728.58V616.91h-8a20.89,20.89,0,1,1,0-41.77h8V539a24.3,24.3,0,0,1,48.6,0v36.15h38.16a20.89,20.89,0,1,1,0,41.77h-38.16V721c0,18.87,9.64,26.51,26.11,26.51,5.62,0,10.44-1.21,12.05-1.21,10.85,0,20.49,8.84,20.49,20.08,0,8.84-6,16.07-12.86,18.88a96.53,96.53,0,0,1-33.34,5.63C3413.76,790.84,3388.45,775.17,3388.45,728.58Z"/><circle class="cls-2" cx="648.02" cy="648.02" r="503.98"/><circle class="cls-3" cx="648.02" cy="648.02" r="427.48"/><circle class="cls-4" cx="648.02" cy="648.02" r="396.02"/><path class="cls-5" d="M1011.41,528.4C961.19,375.75,817.48,265.54,648,265.54a381.19,381.19,0,0,0-264.39,106.1C433.85,524.29,577.56,634.5,747,634.5A381.19,381.19,0,0,0,1011.41,528.4Z"/><path class="cls-3" d="M833.14,432a30.86,30.86,0,0,0-30.85,30.86V617.14H580.54L713,484.68A30.86,30.86,0,1,0,669.36,441L493.71,616.69V462.86a30.86,30.86,0,1,0-61.71,0V833.14a30.86,30.86,0,1,0,61.71,0V678.86L669.36,854.51A30.86,30.86,0,1,0,713,810.87l-132-132h221.3V833.14a30.86,30.86,0,1,0,61.71,0V462.86A30.86,30.86,0,0,0,833.14,432Z"/></svg>