<?xml version="1.0" encoding="utf-8" standalone="yes"?><!-- Generator: Adobe Illustrator 28.0.0, SVG Export Plug-In . SVG Version: 6.00 Build 0)  --><svg xmlns="http://www.w3.org/2000/svg" xmlns:xlink="http://www.w3.org/1999/xlink" version="1.2" baseProfile="tiny-ps" viewBox="0 0 320 87" xml:space="preserve"><title>macarne_bimi</title><g><g><path fill="#333333" d="M311.93,47.3v-0.58h2.56v0.58h-0.94v2.54h-0.69V47.3H311.93z"></path><path fill="#333333" d="M315.81,46.72l0.73,2.15h0.01l0.69-2.15h0.97v3.12h-0.64v-2.21h-0.01l-0.76,2.21h-0.53l-0.76-2.19h-0.01    v2.19h-0.64v-3.12H315.81z"></path></g><polygon fill="#FFFFFF" points="52.95,17.84 54.27,20.81 56.83,22.42 61.9,23.49 58.73,19.94  "></polygon><polygon fill="#FFFFFF" points="75.23,26.33 75.75,29.73 77.11,30.13 78.65,28.89 78.98,27.28  "></polygon><path fill="#EC1D23" d="M81.94,44v41.76H69.66V44c0-0.38-0.28-0.66-0.76-0.66h-20.6c-0.38,0-0.57,0.28-0.57,0.66l0.03,41.76   l-12.5,0l0-41.77c0-0.38-0.28-0.66-0.57-0.66H14.01c-0.38,0-0.66,0.28-0.66,0.66v41.76H0.97v-54.8H68.9   C76.09,30.96,81.94,36.81,81.94,44z"></path><path fill="#EC1D23" d="M121.93,59.44v26.32H95.07c-4.53,0-8.22-3.69-8.22-8.22V64.56h27.28v-5.12c0-0.24-0.18-0.42-0.42-0.42   H86.85v-7.8h26.86C118.24,51.22,121.93,54.91,121.93,59.44z M114.13,72.42H94.65v5.12c0,0.24,0.18,0.42,0.42,0.42h19.06V72.42z"></path><path fill="#EC1D23" d="M161.71,77.96v7.8h-26.86c-4.53,0-8.22-3.69-8.22-8.22v-18.1c0-4.53,3.69-8.22,8.22-8.22h26.74v7.8h-26.74   c-0.24,0-0.42,0.18-0.42,0.42v18.1c0,0.24,0.18,0.42,0.42,0.42H161.71z"></path><path fill="#EC1D23" d="M202.27,59.44v26.32h-26.86c-4.53,0-8.22-3.69-8.22-8.22V64.56h27.28v-5.12c0-0.24-0.18-0.42-0.42-0.42   h-26.86v-7.8h26.86C198.58,51.22,202.27,54.91,202.27,59.44z M194.47,72.42h-19.47v5.12c0,0.24,0.18,0.42,0.42,0.42h19.06V72.42z"></path><path fill="#EC1D23" d="M234.9,51.22v7.8h-19.18c-0.24,0-0.42,0.18-0.42,0.42v26.32h-7.8V59.44c0-4.53,3.69-8.22,8.22-8.22H234.9z"></path><path fill="#EC1D23" d="M274.15,59.44v26.32h-7.8V59.44c0-0.24-0.18-0.42-0.42-0.42h-18.64c-0.24,0-0.42,0.18-0.42,0.42v26.32h-7.8   V51.22h26.86C270.46,51.22,274.15,54.91,274.15,59.44z"></path><path fill="#EC1D23" d="M313.93,59.44v12.98h-27.28v5.12c0,0.24,0.18,0.42,0.42,0.42h26.86v7.8h-26.86c-4.53,0-8.22-3.69-8.22-8.22   v-18.1c0-4.53,3.69-8.22,8.22-8.22h18.64C310.24,51.22,313.93,54.91,313.93,59.44z M306.13,64.56v-5.12c0-0.24-0.18-0.42-0.42-0.42   h-18.64c-0.24,0-0.42,0.18-0.42,0.42v5.12H306.13z"></path><path fill="#333333" d="M81.94,42.8v41.76H69.66V42.8c0-0.38-0.28-0.66-0.76-0.66h-20.6c-0.38,0-0.57,0.28-0.57,0.66l0.03,41.76   l-12.5,0l0-41.77c0-0.38-0.28-0.66-0.57-0.66H14.01c-0.38,0-0.66,0.28-0.66,0.66v41.76H0.97v-54.8H68.9   C76.09,29.76,81.94,35.61,81.94,42.8z"></path><path fill="#333333" d="M121.93,58.24v26.32H95.07c-4.53,0-8.22-3.69-8.22-8.22V63.36h27.28v-5.12c0-0.24-0.18-0.42-0.42-0.42   H86.85v-7.8h26.86C118.24,50.02,121.93,53.71,121.93,58.24z M114.13,71.22H94.65v5.12c0,0.24,0.18,0.42,0.42,0.42h19.06V71.22z"></path><path fill="#333333" d="M161.71,76.76v7.8h-26.86c-4.53,0-8.22-3.69-8.22-8.22v-18.1c0-4.53,3.69-8.22,8.22-8.22h26.74v7.8h-26.74   c-0.24,0-0.42,0.18-0.42,0.42v18.1c0,0.24,0.18,0.42,0.42,0.42H161.71z"></path><path fill="#333333" d="M202.27,58.24v26.32h-26.86c-4.53,0-8.22-3.69-8.22-8.22V63.36h27.28v-5.12c0-0.24-0.18-0.42-0.42-0.42   h-26.86v-7.8h26.86C198.58,50.02,202.27,53.71,202.27,58.24z M194.47,71.22h-19.47v5.12c0,0.24,0.18,0.42,0.42,0.42h19.06V71.22z"></path><path fill="#333333" d="M234.9,50.02v7.8h-19.18c-0.24,0-0.42,0.18-0.42,0.42v26.32h-7.8V58.24c0-4.53,3.69-8.22,8.22-8.22H234.9z"></path><path fill="#333333" d="M274.15,58.24v26.32h-7.8V58.24c0-0.24-0.18-0.42-0.42-0.42h-18.64c-0.24,0-0.42,0.18-0.42,0.42v26.32h-7.8   V50.02h26.86C270.46,50.02,274.15,53.71,274.15,58.24z"></path><path fill="#333333" d="M313.93,58.24v12.98h-27.28v5.12c0,0.24,0.18,0.42,0.42,0.42h26.86v7.8h-26.86c-4.53,0-8.22-3.69-8.22-8.22   v-18.1c0-4.53,3.69-8.22,8.22-8.22h18.64C310.24,50.02,313.93,53.71,313.93,58.24z M306.13,63.36v-5.12c0-0.24-0.18-0.42-0.42-0.42   h-18.64c-0.24,0-0.42,0.18-0.42,0.42v5.12H306.13z"></path><path fill="#EC1D23" d="M47.75,61.55l0.01,12.04c0,0,7.66,3.04,10.28,13.4C58.04,87,61.37,71.29,47.75,61.55z"></path><path fill="#212121" d="M68.9,29.76H15.08c0.84,1.49-0.69,4.32-5.32,7.2c-8.17,5.08-8.38,14.4-8.38,14.4   c6.48-9.33,8.54,2.72,11.97,9V42.8c0-0.38,0.28-0.66,0.66-0.66h19.22c0.17,0-0.01,0-0.01,0c1.47-6.69,9.31-6.8,9.31-6.8   c0.63-3.35,4.19-3.35,4.19-3.35c-2.09,0.31-2.93,3.67-2.83,5.66c0.08,1.43,1.67,2.59,4.19,4.53l0.22-0.04h6.55   c-1.85-2.95-1.12-6.59-1.12-6.59c1.36,0.1,6.28-0.73,7.96-1.26c1.68-0.52,3.35-0.94,5.45,0.31c2.09,1.26,0.23,5.45,0.23,5.45   l4.69-3.14c5.34-3.87,4.93,3.77,4.93,3.77c1.53-1.3,2.75-2.57,3.54-3.77C78.37,32.67,73.97,29.76,68.9,29.76z"></path><path fill="#EC1D23" d="M1.57,49.72c6.91-9.95,8.8,4.4,12.67,10.16s9.01,6.6,11,7.33c1.99,0.73,10.03,2.1,10.03,2.1V49.2   c-3.69-2.13-4.87-6.74-2.34-10.56c3.15-4.76,9.8-4.94,9.8-4.94c0.63-3.35,4.19-3.35,4.19-3.35c-2.09,0.31-2.93,3.67-2.83,5.66   s3.14,3.46,7.54,7.23s4.5,14.35,4.5,14.35c1.89-1.89,2.93-1.26,7.44-2.93c4.5-1.68,4.19-8.17,4.19-8.17   c-4.5,5.45-6.49,1.57-6.49,1.57s-3.35-3.87-5.76-6.91c-2.41-3.04-1.57-7.23-1.57-7.23c1.36,0.1,6.28-0.73,7.96-1.26   s3.35-0.94,5.45,0.31c2.09,1.26,0.52,5.45,0.52,5.45l4.4-3.14c5.34-3.87,5.03,3.77,5.03,3.77c10.47-8.9,1.57-15.92,1.57-15.92   c-2.83,0.94-4.82-0.94-4.82-0.94c-5.76-3.04-6.91-2.62-6.91-2.62c-4.4-0.42-4.82-1.78-4.82-1.78c-3.25-3.87-7.65-3.98-7.65-3.98   C40.31,10.24,33.61,1.34,33.61,1.34c-2.41,9.11,4.08,13.3,4.08,13.3C14.97,18.51,9.53,27.62,9.53,27.62   c7.12-2.3,8.59,2.62,0.42,7.7S1.57,49.72,1.57,49.72z M75.82,26.78c0,0,4.4,0.73,1.89,2.51C75.19,31.08,75.82,26.78,75.82,26.78z    M53.41,18.2c0,0,4.4,1.47,5.13,2.09c0.73,0.63,2.72,2.72,2.72,2.72s-3.87-0.73-4.71-1.26C55.71,21.23,53.61,20.08,53.41,18.2z"></path><path fill="#9B1E2D" d="M32.89,68.9c0.8,0.14,2.38,0.41,2.38,0.41V49.2c0,0-2.64-2.68-3.15-3.55c0,0,1.87,3.99,1.79,12.69   C33.82,69.04,32.89,68.9,32.89,68.9z"></path><path fill="#9B1E2D" d="M48.33,61.97c0,0,0.4-0.06,0.24,5.6c-0.15,5.07-0.8,6.02-0.8,6.02l-0.01-12.04L48.33,61.97z"></path></g></svg>